<?xml version="1.0" encoding="utf-8"?>
<!-- Generator: Adobe Illustrator 16.0.3, SVG Export Plug-In . SVG Version: 6.00 Build 0)  -->
<!DOCTYPE svg PUBLIC "-//W3C//DTD SVG 1.1//EN" "http://www.w3.org/Graphics/SVG/1.1/DTD/svg11.dtd">
<svg version="1.1" xmlns="http://www.w3.org/2000/svg" xmlns:xlink="http://www.w3.org/1999/xlink" x="0px" y="0px"
	 width="841.891px" height="595.279px" viewBox="0 0 841.891 595.279" enable-background="new 0 0 841.891 595.279"
	 xml:space="preserve">
<g id="Capa_1">
	<g id="Capa_1_1_" display="none">
		
			<image display="inline" overflow="visible" enable-background="new    " width="750" height="750" xlink:href="CD9D8A24.jpeg"  transform="matrix(1 0 0 1 46.0007 -77.7195)">
		</image>
	</g>
	<g id="Background">
		<rect x="136.753" y="24.501" fill="#EFEFEF" width="552.598" height="552.598"/>
	</g>
	<g id="Cabeza">
		<path d="M376.5,247.78c0,0,22.501-10,71.001,0c0,0,23.5-91,75-82.5c0,0,46.5,2.5,22,73c0,0-5,11,0,24.5c0,0,7.5,34-15,54l-0.5-25
			l-71-0.5c0,0,1-33-13-34.5c0,0-26.5-6.5-68.501-1.5c0,0-17,9-14.5,36.5h-71v20.5c0,0-13.5-9-15-26.5c0,0-2.5,1,0-20
			c0,0,1-7,4.5-12.5c0,0,3.5-15.5-3-30.5c0,0-4.223-14-2.61-19.5c0,0-6.89-26.12,17.11-38.561c0,0,31.5-13.939,53.5,13.061
			C345.5,177.78,360,186.78,376.5,247.78z"/>
	</g>
	<g id="Oreja_1">
		<path fill="#FFFFFF" d="M292.5,204.78l5.5,27c0,0,3.125,11.875-2.75,23c0,0-2.869,15.5,0.69,19c0,0,12.06,15.5,22.06,0l10-10
			c0,0,5.5-5.5,14-7c0,0,12-4.5,12-17.5c0,0-0.535-15.266-2.5-20.5c0,0-4-23-25.5-38.5c0,0-15-9.5-29.5,0
			C296.5,180.28,289.72,191.134,292.5,204.78z"/>
	</g>
	<g id="Oreja_2">
		<path fill="#FFFFFF" d="M532.852,208.78l-5.5,27c0,0-3.125,11.875,2.75,23c0,0,2.869,15.5-0.69,19c0,0-12.06,15.5-22.06,0l-10-10
			c0,0-5.5-5.5-14-7c0,0-12-4.5-12-17.5c0,0,0.535-15.266,2.5-20.5c0,0,4-23,25.5-38.5c0,0,15-9.5,29.5,0
			C528.852,184.28,535.632,195.134,532.852,208.78z"/>
	</g>
	<g id="Marco_Lentes">
		<path fill="#FFFFFF" d="M291,291.78h238.001v52.136c0,0,5.844,16.234-22.078,16.885h-64.936c0,0-11.04-0.649-17.533-12.987
			c0,0,1.369-11.039-11.652-10.39l-9.775,0.648c0,0-4.545,1.948-6.493,9.74c0,0,0.649,13.637-18.832,12.987l-67.532,0.021
			c0,0-18.856,0.627-19.169-20.151V291.78z"/>
	</g>
	<g id="Cristal_Celeste">
		<path fill="#1280AF" d="M517.312,337.111c0,6.627-5.373,12-12,12h-61.714c-6.627,0-12-5.373-12-12v-21.454c0-6.628,5.373-12,12-12
			h61.714c6.627,0,12,5.372,12,12V337.111z"/>
	</g>
	<g id="Cristal_Rojo">
		<path fill="#CB4334" d="M389.39,337.111c0,6.627-5.373,12-12,12h-61.714c-6.628,0-12-5.373-12-12v-21.454c0-6.628,5.372-12,12-12
			h61.714c6.627,0,12,5.372,12,12V337.111z"/>
	</g>
	<g id="Sombras">
		<path fill="#C65A52" d="M378.017,303.673l-35.393,45.438h35.393c0,0,11.373,0.169,11.373-14.331s0-19.75,0-19.75
			S388.658,304.69,378.017,303.673z"/>
		<path fill="#338BAA" d="M505.938,303.673l-35.392,45.438h35.392c0,0,11.373,0.169,11.373-14.331s0-19.75,0-19.75
			S516.58,304.69,505.938,303.673z"/>
	</g>
	<g id="Nariz">
		<path fill="#020202" d="M305.624,360.823c0,0-7.143,27.897-5.194,35.689c0,0-1.3,13.638,12.337,25.975
			c0,0,9.74,7.791,13.637,12.337c0,0,18.181,12.339,40.909,7.145c0,0,7.792,11.039,30.52,10.39l28.571,0.027
			c0,0,14.937-2.625,22.078-12.365c0,0,18.182,9.091,37.013,0.649c0,0,22.729-7.091,31.818-34.064c0,0,3.896-9.44,0-25.026
			c0,0-4.544-13.587-3.246-20.755h-59.741c0,0,9.092,14.909,24.676,23.353c0,0,21.777,6.633,25.975,22.43
			c0,0,0.158,21.753-26.623,28.22c0,0-32.993,7.144-57.406-20.778c0,0-8.107-3.896-8.144-16.233v-12.987c0,0,1.498-6.492,8.198-8.44
			c0,0,15.793-7.094,16.441-15.561c0,0,9.09-12.361-12.987-24.051h-31.168c0,0-18.832,11.738-10.39,24.051
			c8.441,12.313,9.103,11.453,17.854,16.203c0,0,6,2.25,6,9.75c0,0,3,13.5-9,25.5c0,0-22.001,18.75-32.001,20.25
			c0,0-12.25,5-28.5-2.25c0,0-8.669-2.75-14.334-13.5c0,0-5.166-9.75,2.834-15.75c0,0,2.25-4,16-10.75c0,0,19-10.412,28-29.456
			H305.624z"/>
	</g>
	<g id="Sombra_Nariz">
		<path fill="#414242" d="M424.114,349.112c0,0,0.625,7.875-8,11.75c0,0-1.815,9.206,9,3.5c0,0,9.5-7.875,5.5-14
			S424.743,345.076,424.114,349.112z"/>
	</g>
	<g id="Boca">
		<path fill="#FFFFFF" d="M409.501,410.53c0,0-8.222,13.5-20.11,19.25c0,0-13.141,6.75-13.141,8.75c0,0,4,4.5,8.75,5
			c0,0,26.195,1.75,46.599,0c0,0,6.652-1.25,11.152-6.25c0,0-14.75-6.973-19.5-9.86C423.251,427.419,411.501,419.78,409.501,410.53z
			"/>
	</g>
	<g display="none">
		<g display="inline">
			<path d="M268.565,129.54c3.153,3.452,4.729,5.179,7.882,8.631c-2.782,2.545-4.153,3.854-6.847,6.548
				c-8.242-8.243-16.483-16.485-24.727-24.727c4.779-4.779,7.232-7.07,12.249-11.45c2.505-2.188,4.882-3.786,7.082-4.823
				s4.216-1.601,6.033-1.713s3.425,0.188,4.823,0.879c1.397,0.69,2.572,1.691,3.538,2.987c1.041,1.398,1.712,2.895,2.029,4.478
				c0.318,1.583,0.231,3.214-0.249,4.902c-0.479,1.688-1.375,3.426-2.676,5.239c-1.302,1.813-3.063,3.662-5.287,5.604
				C270.864,127.453,270.095,128.141,268.565,129.54z M264.437,125.022c1.571-1.438,2.362-2.146,3.96-3.541
				c1.997-1.744,3.128-3.344,3.383-4.866c0.254-1.521-0.178-2.983-1.321-4.386c-0.505-0.62-1.083-1.086-1.736-1.396
				c-0.655-0.312-1.38-0.448-2.169-0.405c-0.79,0.043-1.643,0.279-2.551,0.714c-0.907,0.436-1.875,1.094-2.89,1.98
				c-1.675,1.462-2.506,2.205-4.155,3.713C259.949,120.109,261.445,121.747,264.437,125.022z"/>
			<path d="M301.402,77.781c1.188,2.196,1.779,3.294,2.967,5.489c-6.412,3.47-9.567,5.337-15.754,9.333
				c1.77,2.744,2.654,4.115,4.423,6.859c4.576-2.956,6.898-4.359,11.604-7.018c1.179,2.092,1.769,3.138,2.947,5.229
				c-4.583,2.588-6.844,3.955-11.3,6.833c1.806,2.8,2.708,4.201,4.514,7.001c5.602-3.619,8.46-5.309,14.266-8.451
				c1.188,2.196,1.781,3.296,2.968,5.492c-8.843,4.786-13.16,7.463-21.497,13.388c-6.742-9.511-13.483-19.021-20.227-28.533
				C284.35,87.695,292.731,82.473,301.402,77.781z"/>
			<path d="M325.329,90.472c2.148,4.709,3.224,7.063,5.372,11.772c-3.272,1.492-4.896,2.275-8.116,3.917
				c-5.292-10.39-10.585-20.777-15.876-31.166c5.27-2.686,7.938-3.944,13.326-6.29c2.994-1.304,5.669-2.114,7.99-2.473
				c2.321-0.356,4.32-0.335,5.984,0.041c1.666,0.375,3.008,1.063,4.034,2.04c1.027,0.979,1.78,2.173,2.271,3.578
				c0.375,1.073,0.555,2.146,0.542,3.22c-0.012,1.073-0.214,2.135-0.602,3.184c-0.386,1.049-0.947,2.065-1.683,3.058
				s-2.739,2.819-2.739,2.819c0.015,0.042,1.377,0.117,2.039,0.292c0.661,0.176,1.285,0.462,1.872,0.857
				c4.96,3.341,7.362,5.079,11.998,8.675c-3.064,1.013-4.589,1.549-7.621,2.684c-1.404,0.525-2.59,0.438-3.577-0.275
				c-3.888-2.839-5.884-4.217-9.978-6.884c-0.452-0.294-0.901-0.449-1.35-0.465c-0.447-0.016-1.006,0.124-1.677,0.421
				C326.656,89.87,326.213,90.068,325.329,90.472z M323.006,85.383c1.434-0.654,2.152-0.975,3.595-1.603
				c1.219-0.53,2.206-1.102,2.961-1.721c0.755-0.618,1.317-1.266,1.688-1.951c0.37-0.685,0.56-1.387,0.566-2.104
				s-0.129-1.435-0.413-2.147c-0.567-1.428-1.584-2.317-3.068-2.647c-1.482-0.33-3.454,0.011-5.875,1.064
				c-1.508,0.656-2.259,0.99-3.757,1.674C320.424,79.721,321.284,81.609,323.006,85.383z"/>
			<path d="M360.422,77.919c1.332,5.001,1.998,7.503,3.33,12.504c-3.434,0.911-5.143,1.403-8.543,2.462
				c-3.476-11.128-6.951-22.257-10.425-33.385c5.565-1.732,8.369-2.516,14.009-3.908c3.133-0.774,5.878-1.12,8.205-1.081
				c2.326,0.04,4.276,0.399,5.843,1.048c1.568,0.65,2.769,1.551,3.612,2.687c0.845,1.136,1.385,2.44,1.636,3.907
				c0.192,1.12,0.192,2.207,0.005,3.264c-0.187,1.055-0.559,2.065-1.106,3.035c-0.548,0.969-1.265,1.877-2.146,2.73
				c-0.88,0.854-3.136,2.315-3.136,2.315c0.007,0.043,1.327,0.349,1.944,0.633c0.617,0.285,1.18,0.67,1.688,1.159
				c4.305,4.125,6.369,6.242,10.319,10.561c-3.166,0.486-4.745,0.76-7.893,1.367c-1.458,0.281-2.604-0.005-3.451-0.875
				c-3.336-3.452-5.062-5.148-8.623-8.468c-0.394-0.366-0.808-0.596-1.241-0.687s-1.002-0.048-1.705,0.13
				C361.814,77.553,361.35,77.673,360.422,77.919z M358.983,72.515c1.504-0.399,2.256-0.59,3.766-0.963
				c1.276-0.315,2.333-0.71,3.171-1.192c0.838-0.479,1.492-1.023,1.964-1.637c0.473-0.613,0.773-1.271,0.897-1.978
				c0.124-0.706,0.107-1.435-0.054-2.186c-0.322-1.502-1.172-2.552-2.567-3.128c-1.395-0.576-3.374-0.572-5.907,0.054
				c-1.578,0.391-2.364,0.591-3.937,1.008C357.383,66.501,357.916,68.506,358.983,72.515z"/>
			<path d="M426.042,66.068c-0.094,2.526-0.693,4.856-1.756,7c-1.062,2.146-2.487,4.001-4.268,5.591
				c-1.78,1.589-3.879,2.846-6.3,3.803c-2.422,0.957-5.083,1.502-8.034,1.67c-2.949,0.167-5.664-0.072-8.19-0.747
				s-4.763-1.687-6.725-3.061c-1.962-1.373-3.601-3.054-4.901-5.063c-1.302-2.01-2.165-4.256-2.547-6.755s-0.229-4.903,0.509-7.209
				c0.737-2.307,1.979-4.39,3.747-6.225s4.025-3.358,6.76-4.536c2.735-1.179,5.854-1.887,9.307-2.082
				c3.455-0.196,6.626,0.156,9.465,1.023c2.838,0.868,5.241,2.133,7.194,3.755s3.422,3.549,4.415,5.755
				C425.712,61.192,426.136,63.559,426.042,66.068z M416.258,65.917c-0.011-1.729-0.286-3.283-0.838-4.662s-1.348-2.541-2.393-3.481
				c-1.045-0.939-2.328-1.645-3.844-2.104c-1.517-0.458-3.242-0.641-5.158-0.531c-1.936,0.11-3.644,0.487-5.108,1.116
				c-1.464,0.629-2.663,1.475-3.594,2.526c-0.932,1.054-1.591,2.3-1.982,3.731c-0.392,1.433-0.485,3.008-0.299,4.726
				c0.189,1.734,0.62,3.262,1.28,4.583c0.66,1.323,1.512,2.412,2.556,3.277c1.042,0.866,2.268,1.491,3.68,1.886
				c1.413,0.396,2.99,0.536,4.744,0.438c1.736-0.1,3.271-0.418,4.621-0.97c1.349-0.553,2.489-1.313,3.425-2.291
				c0.935-0.979,1.659-2.159,2.162-3.548C416.012,69.226,416.268,67.661,416.258,65.917z"/>
			<path d="M449.388,79.267c5.763,0.854,8.632,1.377,14.337,2.619c-0.554,2.533-0.831,3.8-1.385,6.333
				c-8.998-1.959-13.545-2.69-22.674-3.651c1.228-11.592,2.456-23.183,3.686-34.773c4.101,0.432,6.148,0.689,10.23,1.294
				C452.185,60.48,450.785,69.874,449.388,79.267z"/>
			<path d="M507.315,84.338c-1,2.323-2.409,4.275-4.188,5.888c-1.779,1.612-3.798,2.819-6.056,3.65
				c-2.258,0.832-4.696,1.24-7.331,1.252c-2.633,0.012-5.342-0.446-8.181-1.355c-2.84-0.91-5.307-2.111-7.438-3.65
				c-2.131-1.539-3.86-3.285-5.205-5.272c-1.345-1.986-2.277-4.141-2.772-6.482c-0.495-2.343-0.494-4.749,0.047-7.219
				c0.541-2.469,1.551-4.659,3.07-6.547c1.519-1.888,3.433-3.387,5.751-4.465s4.984-1.69,7.979-1.805
				c2.994-0.115,6.181,0.348,9.506,1.414c3.324,1.064,6.191,2.544,8.561,4.386c2.369,1.843,4.185,3.899,5.449,6.128
				c1.264,2.228,1.96,4.563,2.104,6.986C508.757,79.669,508.309,82.03,507.315,84.338z M498.104,80.615
				c0.613-1.615,0.917-3.168,0.893-4.654c-0.023-1.487-0.356-2.861-1.005-4.118c-0.647-1.257-1.604-2.382-2.87-3.36
				c-1.267-0.978-2.826-1.771-4.672-2.361c-1.863-0.599-3.606-0.863-5.212-0.806c-1.604,0.06-3.036,0.417-4.29,1.063
				c-1.254,0.646-2.324,1.574-3.207,2.77c-0.884,1.196-1.539,2.634-1.98,4.305c-0.447,1.686-0.59,3.266-0.447,4.735
				c0.143,1.471,0.549,2.796,1.216,3.979c0.667,1.183,1.594,2.206,2.78,3.084c1.188,0.877,2.62,1.579,4.31,2.121
				c1.673,0.536,3.234,0.794,4.707,0.769c1.473-0.026,2.822-0.321,4.061-0.893c1.235-0.573,2.345-1.411,3.321-2.523
				C496.683,83.613,497.484,82.246,498.104,80.615z"/>
			<path d="M532.205,106.784c0.192,0.118,0.364,0.267,0.519,0.446c0.153,0.181,0.271,0.4,0.354,0.658
				c0.562,1.948,0.827,2.923,1.337,4.87c-2.366,0.656-4.804,0.746-7.335,0.298c-2.53-0.448-5.179-1.468-8.003-3.038
				c-2.591-1.439-4.723-3.071-6.413-4.94c-1.689-1.87-2.944-3.861-3.769-6.011c-0.824-2.148-1.215-4.399-1.15-6.767
				c0.065-2.367,0.596-4.723,1.632-7.065c1.055-2.385,2.517-4.362,4.427-5.898c1.909-1.536,4.129-2.598,6.653-3.152
				c2.526-0.554,5.294-0.576,8.276-0.035c2.981,0.542,6.039,1.677,9.119,3.416c1.494,0.845,2.84,1.756,4.029,2.729
				c1.188,0.973,2.237,1.981,3.146,3.021c0.909,1.038,1.676,2.099,2.304,3.17c0.627,1.073,1.107,2.133,1.442,3.174
				c-1.988,0.454-2.977,0.692-4.938,1.189c-0.309,0.07-0.642,0.103-0.996,0.095c-0.355-0.006-0.765-0.153-1.229-0.441
				c-0.31-0.192-0.57-0.427-0.779-0.706s-0.42-0.591-0.637-0.938c-0.217-0.347-0.456-0.726-0.719-1.136
				c-0.264-0.411-0.608-0.849-1.031-1.313c-0.424-0.464-0.946-0.955-1.578-1.47c-0.633-0.515-1.419-1.039-2.358-1.568
				c-1.632-0.921-3.256-1.515-4.855-1.783c-1.602-0.27-3.113-0.217-4.524,0.145c-1.412,0.362-2.695,1.029-3.849,1.991
				c-1.153,0.961-2.104,2.215-2.865,3.749c-0.797,1.606-1.237,3.164-1.347,4.666s0.052,2.898,0.485,4.191
				c0.434,1.294,1.102,2.459,2.008,3.505c0.905,1.047,1.996,1.926,3.283,2.646c0.739,0.415,1.432,0.766,2.075,1.052
				c0.645,0.287,1.271,0.508,1.88,0.659c0.607,0.153,1.219,0.25,1.833,0.29c0.613,0.041,1.275,0.021,1.965-0.035
				c0.271-0.021,0.555-0.007,0.833,0.041C531.708,106.537,531.966,106.636,532.205,106.784z"/>
			<path d="M578.001,132.347c-1.788,1.788-3.844,3.058-6.135,3.854c-2.292,0.797-4.673,1.113-7.149,0.982
				c-2.479-0.13-4.978-0.728-7.524-1.771c-2.547-1.043-5.001-2.555-7.415-4.53c-2.415-1.978-4.362-4.072-5.866-6.346
				c-1.504-2.274-2.551-4.581-3.137-6.962c-0.585-2.381-0.713-4.757-0.354-7.142c0.357-2.385,1.215-4.638,2.612-6.746
				c1.397-2.106,3.146-3.772,5.274-4.961c2.129-1.188,4.5-1.858,7.109-1.977c2.611-0.117,5.393,0.336,8.313,1.393
				c2.921,1.058,5.824,2.741,8.652,5.058c2.826,2.313,5.07,4.85,6.707,7.533c1.636,2.687,2.666,5.36,3.102,7.978
				s0.284,5.105-0.43,7.458C581.046,128.52,579.776,130.571,578.001,132.347z M570.405,125.089c1.164-1.277,2.005-2.619,2.507-4.03
				c0.503-1.411,0.665-2.843,0.484-4.286c-0.182-1.443-0.706-2.886-1.581-4.31c-0.876-1.425-2.1-2.791-3.669-4.075
				c-1.586-1.298-3.17-2.231-4.736-2.805c-1.564-0.573-3.071-0.796-4.509-0.678c-1.437,0.119-2.794,0.574-4.066,1.354
				c-1.275,0.78-2.416,1.874-3.437,3.27c-1.029,1.409-1.729,2.835-2.113,4.271c-0.384,1.436-0.462,2.837-0.239,4.207
				c0.222,1.37,0.75,2.693,1.581,3.981c0.832,1.29,1.964,2.512,3.4,3.688c1.422,1.164,2.838,2.027,4.27,2.589
				c1.43,0.562,2.838,0.823,4.234,0.779s2.765-0.39,4.103-1.044C567.97,127.344,569.23,126.378,570.405,125.089z"/>
		</g>
	</g>
	<g>
		<g>
			<path d="M298.814,523.369c-0.145,0-0.217,0.001-0.361,0.001c0-8.399,0-12.601,0-21.001c0.145,0,0.217,0,0.361,0
				C298.814,510.771,298.814,514.97,298.814,523.369z"/>
			<path d="M316.482,518.553c0.03,0.051,0.059,0.1,0.084,0.145c0.023,0.045,0.081,0.173,0.081,0.173
				c0.006,0,0.058-0.128,0.083-0.173c0.024-0.045,0.052-0.094,0.082-0.145c3.695-6.427,5.544-9.638,9.24-16.063
				c0.05-0.08,0.119-0.12,0.21-0.12c0.048,0,0.071,0,0.119,0c0,8.4,0,12.602,0,21.001c-0.119,0-0.179,0-0.299,0
				c0-8.027,0-12.043,0-20.07c0-0.051,0-0.103,0-0.151s0.004-0.099,0.015-0.147c-3.679,6.407-5.518,9.611-9.195,16.021
				c-0.07,0.1-0.139,0.147-0.209,0.147c-0.036,0-0.055,0-0.091,0c-0.07,0-0.14-0.049-0.209-0.147
				c-3.799-6.402-5.698-9.604-9.496-16.006c0.01,0.051,0.015,0.098,0.015,0.143s0,0.093,0,0.144c0,8.027,0,12.043,0,20.07
				c-0.12,0-0.18,0-0.3,0c0-8.399,0-12.601,0-21.001c0.048,0,0.072,0,0.12,0c0.09,0,0.161,0.04,0.211,0.12
				C310.759,508.915,312.667,512.127,316.482,518.553z"/>
			<path d="M334.543,514.369c0,3.601,0,5.401,0,9.001c-0.144,0-0.217,0-0.36,0c0-8.399,0-12.601,0-21.001c1.896,0,2.845,0,4.74,0
				c2.29,0,4.047,0.495,5.271,1.485c1.225,0.989,1.838,2.495,1.838,4.515c0,0.87-0.173,1.676-0.518,2.409
				c-0.346,0.735-0.83,1.366-1.46,1.896c-0.631,0.529-1.381,0.942-2.25,1.242c-0.87,0.301-1.83,0.452-2.881,0.452
				C337.171,514.369,336.295,514.369,334.543,514.369z M334.542,514.071c1.752,0,2.628,0,4.38,0c1.03,0,1.959-0.147,2.789-0.442
				s1.538-0.7,2.123-1.216s1.038-1.117,1.358-1.808s0.48-1.436,0.48-2.235c0-1.87-0.563-3.289-1.688-4.255
				c-1.125-0.965-2.813-1.447-5.063-1.447c-1.752,0-2.628,0-4.38,0C334.543,507.229,334.542,509.511,334.542,514.071z"/>
			<path d="M351.912,513.23c0,4.056,0,6.085-0.001,10.141c-0.144,0-0.215,0-0.359,0c0.002-8.399,0.002-12.601,0-21.001
				c1.944,0,2.917,0,4.86,0c2.19,0,3.872,0.426,5.047,1.275s1.764,2.175,1.764,3.975c0,0.851-0.166,1.617-0.496,2.304
				c-0.33,0.685-0.794,1.266-1.396,1.744c-0.6,0.48-1.317,0.855-2.151,1.125c-0.836,0.271-2.77,0.438-2.77,0.438
				c0,0.002,0.192,0.092,0.272,0.157c0.08,0.064,0.157,0.143,0.237,0.231c3.276,3.9,4.914,5.852,8.189,9.751
				c-0.096,0-0.144,0-0.239,0c-0.08,0-0.144-0.011-0.194-0.024c-0.05-0.016-0.116-0.065-0.196-0.155
				c-3.145-3.768-4.716-5.652-7.859-9.42c-0.09-0.11-0.178-0.2-0.263-0.271c-0.085-0.068-0.18-0.125-0.284-0.165
				c-0.105-0.04-0.229-0.066-0.368-0.081c-0.14-0.017-0.313-0.022-0.523-0.022C353.875,513.23,353.22,513.23,351.912,513.23z
				 M351.912,512.928c1.692,0,2.54,0,4.231,0c1.029,0,1.956-0.12,2.78-0.365c0.825-0.245,1.53-0.595,2.115-1.05
				s1.036-1.012,1.352-1.667c0.314-0.655,0.471-1.396,0.471-2.227c0-1.71-0.554-2.963-1.664-3.758s-2.706-1.193-4.785-1.193
				c-1.8,0-2.7,0-4.5,0C351.913,506.771,351.912,508.823,351.912,512.928z"/>
			<path d="M381.822,502.369c0,0.133,0,0.198,0,0.33c-4.764,0-7.146,0-11.911,0c0,3.937,0,5.904,0,9.84c4.044,0,6.066,0,10.11,0
				c0,0.133,0,0.198,0,0.33c-4.044,0-6.066,0-10.11,0c0,4.068,0,6.103-0.001,10.17c4.776,0,7.164,0,11.94,0
				c-0.013,0.133-0.019,0.199-0.029,0.331c-4.908,0-7.363,0-12.271,0c0.001-8.399,0.003-12.601,0.001-21.001
				C374.46,502.369,376.914,502.369,381.822,502.369z"/>
			<path d="M397.181,504.289c-0.05,0.062-0.104,0.091-0.165,0.091c-0.09,0-0.229-0.104-0.413-0.309
				c-0.185-0.204-0.455-0.427-0.811-0.667c-0.354-0.24-0.813-0.464-1.373-0.668c-0.56-0.204-1.26-0.31-2.1-0.31
				c-0.86,0-1.621,0.135-2.286,0.398c-0.665,0.267-1.224,0.618-1.674,1.059c-0.45,0.439-0.794,0.95-1.029,1.529
				c-0.234,0.58-0.351,1.187-0.351,1.815c0,0.81,0.157,1.484,0.472,2.024c0.315,0.539,0.729,0.994,1.238,1.364
				s1.095,0.679,1.755,0.923c0.66,0.245,1.33,0.481,2.01,0.707s1.353,0.461,2.012,0.711c0.66,0.25,1.244,0.566,1.755,0.952
				c0.51,0.386,0.923,0.858,1.238,1.425c0.314,0.563,0.471,1.272,0.471,2.123c0,0.859-0.146,1.66-0.436,2.404
				c-0.29,0.745-0.71,1.397-1.26,1.952c-0.55,0.556-1.227,0.993-2.025,1.313c-0.799,0.318-1.709,0.479-2.729,0.479
				c-0.71,0-1.345-0.063-1.905-0.188c-0.56-0.125-1.072-0.304-1.537-0.538c-0.465-0.235-0.895-0.521-1.284-0.855
				c-0.39-0.335-0.765-0.719-1.125-1.148c0.024-0.023,0.037-0.034,0.062-0.059c0.03-0.029,0.054-0.055,0.074-0.068
				c0.02-0.017,0.056-0.022,0.105-0.022c0.061,0,0.147,0.063,0.262,0.188c0.115,0.125,0.273,0.283,0.474,0.479
				s0.438,0.402,0.719,0.623c0.28,0.22,0.622,0.429,1.022,0.624c0.399,0.195,0.855,0.355,1.372,0.48
				c0.515,0.125,1.103,0.188,1.763,0.188c0.97,0,1.832-0.157,2.587-0.468s1.395-0.729,1.92-1.252c0.525-0.525,0.925-1.139,1.2-1.838
				s0.414-1.444,0.414-2.234c0-0.66-0.103-1.229-0.308-1.708s-0.484-0.896-0.834-1.24c-0.351-0.345-0.757-0.64-1.222-0.885
				s-0.964-0.464-1.494-0.658c-0.53-0.193-1.07-0.377-1.62-0.542s-1.091-0.347-1.621-0.547c-0.529-0.2-1.027-0.426-1.492-0.681
				c-0.466-0.255-0.871-0.567-1.222-0.934c-0.35-0.363-0.628-0.8-0.833-1.305s-0.307-1.103-0.307-1.792
				c0-0.67,0.124-1.313,0.374-1.928s0.615-1.157,1.095-1.628c0.48-0.471,1.073-0.847,1.777-1.125c0.704-0.279,1.513-0.42,2.423-0.42
				c1.02,0,1.923,0.165,2.708,0.494c0.785,0.33,1.521,0.855,2.211,1.575C397.218,504.236,397.205,504.254,397.181,504.289z"/>
			<path d="M403.991,523.37c-0.144,0-0.215,0-0.358,0c0-8.399,0-12.601,0-21.001c0.144,0,0.215,0,0.358,0
				C403.992,510.771,403.992,514.971,403.991,523.37z"/>
			<path d="M429.853,512.869c0,1.66-0.239,3.151-0.714,4.472c-0.476,1.319-1.141,2.441-1.995,3.367
				c-0.854,0.925-1.877,1.633-3.067,2.128c-1.188,0.494-2.505,0.745-3.944,0.745c-1.431,0-2.737-0.251-3.922-0.745
				c-1.186-0.495-2.205-1.203-3.061-2.128c-0.854-0.926-1.52-2.048-1.995-3.367c-0.475-1.319-0.712-2.812-0.712-4.472
				c0-1.649,0.237-3.138,0.712-4.463c0.476-1.324,1.141-2.454,1.995-3.384c0.855-0.931,1.875-1.644,3.061-2.144
				c1.185-0.5,2.491-0.75,3.922-0.75c1.439,0,2.756,0.251,3.944,0.744c1.189,0.494,2.213,1.205,3.067,2.136s1.521,2.06,1.996,3.385
				C429.615,509.719,429.853,511.21,429.853,512.869z M429.463,512.869c0-1.63-0.229-3.09-0.684-4.38
				c-0.455-1.29-1.094-2.383-1.914-3.283c-0.819-0.899-1.803-1.588-2.946-2.063c-1.145-0.475-2.406-0.717-3.787-0.717
				c-1.36,0-2.61,0.242-3.75,0.717c-1.141,0.476-2.123,1.162-2.947,2.063c-0.825,0.9-1.47,1.993-1.936,3.283
				c-0.465,1.29-0.697,2.75-0.697,4.38s0.232,3.087,0.697,4.371c0.466,1.285,1.109,2.377,1.936,3.271
				c0.825,0.895,1.807,1.58,2.947,2.055c1.14,0.476,2.39,0.713,3.75,0.713c1.381,0,2.642-0.237,3.787-0.713
				c1.145-0.475,2.127-1.16,2.946-2.055c0.82-0.896,1.458-1.986,1.913-3.271C429.232,515.956,429.463,514.499,429.463,512.869z"/>
			<path d="M436.031,502.49c5.946,8.094,8.92,12.143,14.866,20.235c-0.01-0.051-0.016-0.104-0.016-0.158s0-0.109,0-0.159
				c0-8.016,0-12.021,0-20.038c0.12,0,0.181,0,0.301,0c0,8.4,0,12.602,0,21.001c-0.036,0-0.055,0-0.091,0
				c-0.062,0-0.114-0.035-0.164-0.105c-5.977-8.13-8.965-12.194-14.941-20.324c0.01,0.06,0.018,0.122,0.018,0.188
				c0,0.063,0,0.121,0,0.172c0,8.027,0,12.043,0,20.07c-0.12,0-0.183,0-0.303,0c0-8.399,0-12.601,0-21.001c0.048,0,0.071,0,0.119,0
				C435.91,502.369,435.981,502.409,436.031,502.49z"/>
			<path d="M470.65,502.369c0,0.133,0,0.198,0,0.33c-4.764,0-7.146,0-11.911,0c0,3.937,0,5.904,0,9.84c4.044,0,6.068,0,10.112,0
				c0,0.133,0,0.198,0,0.33c-4.044,0-6.068,0-10.112,0c0,4.068,0,6.103,0,10.17c4.776,0,7.166,0,11.942,0
				c-0.012,0.133-0.021,0.199-0.031,0.331c-4.908,0-7.362,0-12.271,0c0-8.399,0-12.601,0-21.001
				C463.288,502.369,465.742,502.369,470.65,502.369z"/>
			<path d="M486.01,504.289c-0.052,0.062-0.104,0.091-0.163,0.091c-0.091,0-0.228-0.104-0.412-0.309
				c-0.186-0.204-0.456-0.427-0.812-0.667c-0.354-0.24-0.813-0.463-1.372-0.668c-0.561-0.204-1.261-0.31-2.101-0.31
				c-0.86,0-1.625,0.135-2.29,0.398c-0.665,0.267-1.218,0.618-1.668,1.059c-0.45,0.439-0.795,0.95-1.029,1.529
				c-0.234,0.58-0.353,1.187-0.353,1.815c0,0.81,0.157,1.484,0.473,2.024c0.314,0.54,0.727,0.994,1.235,1.364
				s1.097,0.679,1.757,0.923c0.66,0.245,1.33,0.481,2.01,0.707c0.681,0.226,1.352,0.461,2.011,0.711s1.242,0.567,1.753,0.952
				c0.51,0.386,0.925,0.858,1.239,1.425c0.314,0.563,0.472,1.272,0.472,2.123c0,0.859-0.144,1.66-0.434,2.404
				c-0.29,0.745-0.709,1.397-1.259,1.952c-0.55,0.556-1.229,0.993-2.029,1.313c-0.8,0.319-1.708,0.479-2.728,0.479
				c-0.71,0-1.348-0.063-1.907-0.188c-0.561-0.125-1.068-0.304-1.534-0.538c-0.466-0.235-0.893-0.521-1.282-0.855
				c-0.391-0.335-0.766-0.719-1.125-1.148c0.023-0.023,0.033-0.034,0.059-0.059c0.029-0.029,0.057-0.055,0.076-0.068
				c0.019-0.015,0.057-0.022,0.105-0.022c0.062,0,0.146,0.063,0.262,0.188c0.113,0.125,0.271,0.283,0.473,0.479
				c0.199,0.195,0.438,0.402,0.718,0.623c0.28,0.22,0.62,0.429,1.021,0.624c0.399,0.195,0.859,0.355,1.376,0.48
				c0.515,0.125,1.102,0.188,1.762,0.188c0.97,0,1.834-0.157,2.589-0.468s1.395-0.729,1.918-1.252
				c0.525-0.525,0.925-1.139,1.2-1.838c0.274-0.699,0.415-1.444,0.415-2.234c0-0.66-0.105-1.229-0.311-1.708
				s-0.483-0.896-0.835-1.24c-0.35-0.345-0.755-0.64-1.221-0.885c-0.465-0.245-0.96-0.463-1.49-0.658
				c-0.529-0.193-1.071-0.377-1.622-0.542c-0.55-0.165-1.088-0.347-1.617-0.547c-0.53-0.2-1.031-0.426-1.496-0.681
				c-0.466-0.255-0.87-0.567-1.221-0.934c-0.35-0.363-0.628-0.8-0.832-1.305c-0.205-0.505-0.309-1.103-0.309-1.792
				c0-0.67,0.125-1.313,0.375-1.928s0.616-1.157,1.096-1.628c0.48-0.471,1.069-0.846,1.774-1.125s1.515-0.42,2.425-0.42
				c1.02,0,1.922,0.165,2.707,0.494c0.785,0.33,1.522,0.855,2.213,1.575C486.048,504.236,486.032,504.254,486.01,504.289z"/>
			<path d="M503.171,502.13c0.72,0,1.42,0.099,2.1,0.298c0.681,0.2,1.287,0.513,1.817,0.933c0.528,0.42,0.952,0.962,1.271,1.627
				c0.32,0.665,0.48,1.463,0.48,2.394c0,0.71-0.138,1.36-0.407,1.956c-0.271,0.595-0.627,1.113-1.072,1.554
				c-0.445,0.439-0.954,0.803-1.533,1.088c-0.58,0.285-1.789,0.563-1.789,0.563c0,0.006,1.646,0.252,2.319,0.542
				s1.239,0.665,1.695,1.125c0.454,0.46,0.8,0.994,1.034,1.609s0.353,1.285,0.353,2.005c0,0.771-0.162,1.501-0.487,2.201
				c-0.324,0.7-0.774,1.316-1.354,1.847c-0.58,0.531-1.271,0.952-2.072,1.269c-0.8,0.313-1.675,0.473-2.625,0.473
				c-0.84,0-1.577-0.085-2.212-0.255c-0.636-0.17-1.186-0.393-1.65-0.668c-0.465-0.274-0.854-0.595-1.17-0.96
				c-0.313-0.365-0.576-0.742-0.787-1.133c-0.21-0.391-0.377-0.779-0.502-1.17s-0.229-0.753-0.309-1.094
				c0.024-0.012,0.036-0.021,0.061-0.031c0.04-0.021,0.082-0.029,0.122-0.029c0.079,0,0.134,0.03,0.168,0.095
				c0.035,0.065,0.073,0.162,0.102,0.28c0.032,0.137,0.087,0.354,0.172,0.637c0.085,0.285,0.215,0.602,0.396,0.945
				c0.181,0.345,0.412,0.7,0.697,1.065c0.285,0.364,0.654,0.696,1.104,0.997c0.45,0.3,0.982,0.543,1.604,0.732
				c0.62,0.189,1.356,0.289,2.206,0.289c1.03,0,1.932-0.175,2.7-0.52c0.771-0.347,1.412-0.787,1.928-1.322s0.902-1.124,1.162-1.77
				c0.26-0.645,0.392-1.27,0.392-1.88c0-0.72-0.125-1.39-0.375-2.01s-0.646-1.162-1.187-1.622s-1.228-0.823-2.067-1.088
				c-0.839-0.265-1.853-0.402-3.031-0.412c0-0.096,0-0.145,0-0.24c0.92-0.029,1.753-0.173,2.503-0.428s1.39-0.605,1.914-1.052
				c0.524-0.445,0.931-0.968,1.216-1.573c0.284-0.604,0.429-1.277,0.429-2.018c0-0.87-0.148-1.617-0.444-2.242
				c-0.295-0.625-0.69-1.139-1.187-1.537c-0.495-0.4-1.06-0.693-1.7-0.884c-0.64-0.189-1.301-0.289-1.979-0.289
				c-0.78,0-1.5,0.122-2.16,0.361c-0.66,0.24-1.24,0.577-1.74,1.014c-0.5,0.435-0.915,0.952-1.245,1.553
				c-0.33,0.6-0.547,1.275-0.675,1.995c-0.028,0.157-0.1,0.241-0.21,0.241c-0.061,0-0.09,0-0.149,0
				c0.109-0.84,0.337-1.601,0.683-2.274c0.346-0.675,0.788-1.247,1.328-1.717c0.54-0.471,1.162-0.833,1.866-1.088
				C501.576,502.258,502.341,502.13,503.171,502.13z"/>
			<path d="M532.27,512.869c0,1.66-0.238,3.144-0.713,4.442c-0.476,1.299-1.138,2.396-1.993,3.298
				c-0.854,0.899-1.879,1.585-3.069,2.055c-1.189,0.472-2.505,0.706-3.944,0.706c-3,0-4.5,0-7.5,0c0-8.399,0-12.601,0-21.001
				c3,0,4.5,0,7.5,0c1.439,0,2.755,0.235,3.944,0.705c1.19,0.471,2.216,1.155,3.069,2.056c0.855,0.899,1.519,1.998,1.993,3.298
				C532.031,509.729,532.27,511.21,532.27,512.869z M531.88,512.869c0-1.63-0.227-3.074-0.682-4.341
				c-0.455-1.265-1.094-2.334-1.914-3.204c-0.819-0.87-1.803-1.53-2.946-1.979c-1.145-0.449-2.407-0.678-3.788-0.678
				c-2.855,0-4.284,0-7.141,0c0,8.16,0,12.244,0,20.404c2.855,0,4.284,0,7.141,0c1.381,0,2.644-0.228,3.788-0.677
				c1.144-0.449,2.127-1.11,2.946-1.98c0.82-0.869,1.459-1.938,1.914-3.203C531.653,515.945,531.88,514.499,531.88,512.869z"/>
		</g>
	</g>
</g>
<g id="Capa_2">
	<rect x="263.497" y="91.983" fill="none" width="306.007" height="51.834"/>
	<text transform="matrix(1 0 0 1 263.4968 127.9348)" font-family="'Lato-Black'" font-size="48">PERRO LOCO</text>
</g>
</svg>
